<svg width="179" height="204" viewBox="0 0 179 204" fill="none" xmlns="http://www.w3.org/2000/svg">
<g id="Group">
<g id="Group_2">
<path id="Vector" d="M89.4496 49.0258C89.4496 41.4653 94.1963 35.0472 100.862 32.4934C98.9093 31.7542 96.7885 31.351 94.5666 31.351C84.7703 31.351 76.8591 39.2811 76.8591 49.0258C76.8591 58.8041 84.8039 66.7006 94.5666 66.7006C96.7885 66.7006 98.9093 66.2974 100.862 65.5582C94.1963 63.0044 89.4496 56.5863 89.4496 49.0258Z" fill="#8E5B42"/>
<g id="Group_3">
<path id="Vector_2" d="M99.1787 76.0757L105.979 93.0785" stroke="#8E5B42" stroke-width="1.83321" stroke-miterlimit="10" stroke-linecap="round"/>
<path id="Vector_3" d="M79.6197 75.1349L73.0215 93.1122" stroke="#8E5B42" stroke-width="1.83321" stroke-miterlimit="10" stroke-linecap="round"/>
<path id="Vector_4" d="M88.5071 19.5565L87.9348 0.671997" stroke="#8E5B42" stroke-width="1.83321" stroke-miterlimit="10" stroke-linecap="round"/>
<path id="Vector_5" d="M107.258 26.0418L119.209 11.0552" stroke="#8E5B42" stroke-width="1.83321" stroke-miterlimit="10" stroke-linecap="round"/>
<path id="Vector_6" d="M118.334 42.7085L136.311 39.2139" stroke="#8E5B42" stroke-width="1.83321" stroke-miterlimit="10" stroke-linecap="round"/>
<path id="Vector_7" d="M115.405 62.9371L131.059 71.7074" stroke="#8E5B42" stroke-width="1.83321" stroke-miterlimit="10" stroke-linecap="round"/>
<path id="Vector_8" d="M65.8171 61.6938L47.8403 71.8418" stroke="#8E5B42" stroke-width="1.83321" stroke-miterlimit="10" stroke-linecap="round"/>
<path id="Vector_9" d="M62.8884 43.2798L42.4878 39.382" stroke="#8E5B42" stroke-width="1.83321" stroke-miterlimit="10" stroke-linecap="round"/>
<path id="Vector_10" d="M72.4827 27.3187L59.4883 11.1896" stroke="#8E5B42" stroke-width="1.83321" stroke-miterlimit="10" stroke-linecap="round"/>
<g id="Group_4">
<g id="Group_5">
<g id="Group_6">
<path id="Vector_11" d="M95.5429 26.6131C95.4756 26.6131 95.4083 26.6131 95.341 26.5795C94.9707 26.4787 94.7687 26.109 94.8697 25.7394L95.139 24.7985C95.24 24.4289 95.6103 24.2273 95.9806 24.3281C96.3509 24.4289 96.5529 24.7985 96.4519 25.1682L96.1826 26.109C96.1152 26.4451 95.8459 26.6131 95.5429 26.6131Z" fill="#8E5B42"/>
<path id="Vector_12" d="M96.3508 23.8913C96.2835 23.8913 96.2161 23.8913 96.1488 23.8577C95.7785 23.7569 95.5765 23.3872 95.6775 23.0176L96.1825 21.2031C96.2835 20.8334 96.6538 20.6318 97.0241 20.7326C97.3944 20.8334 97.5964 21.2031 97.4954 21.5727L96.9904 23.3872C96.9231 23.6896 96.6538 23.8913 96.3508 23.8913ZM97.3944 20.2958C97.3271 20.2958 97.2597 20.2958 97.1924 20.2622C96.8221 20.1614 96.6201 19.7918 96.7211 19.4221L97.2261 17.6076C97.3271 17.238 97.6974 17.0364 98.0677 17.1372C98.438 17.238 98.64 17.6076 98.539 17.9772L98.034 19.7918C97.9667 20.0942 97.6974 20.2958 97.3944 20.2958ZM98.438 16.7004C98.3707 16.7004 98.3033 16.7004 98.236 16.6668C97.8657 16.5659 97.6637 16.1963 97.7647 15.8267L98.2697 14.0122C98.3707 13.6425 98.741 13.4409 99.1113 13.5417C99.4816 13.6425 99.6836 14.0122 99.5826 14.3818L99.0776 16.1963C99.0103 16.4987 98.741 16.7004 98.438 16.7004Z" fill="#8E5B42"/>
<path id="Vector_13" d="M99.4817 13.1049C99.4143 13.1049 99.347 13.1049 99.2797 13.0713C98.9094 12.9705 98.7074 12.6009 98.8084 12.2312L99.0777 11.2904C99.1787 10.9207 99.549 10.7191 99.9193 10.8199C100.29 10.9207 100.492 11.2904 100.391 11.66L100.121 12.6009C100.054 12.9033 99.7846 13.1049 99.4817 13.1049Z" fill="#8E5B42"/>
</g>
</g>
</g>
<g id="Group_7">
<g id="Group_8">
<g id="Group_9">
<path id="Vector_14" d="M108.167 36.1225C107.965 36.1225 107.729 36.0217 107.595 35.8201C107.393 35.5176 107.46 35.0808 107.797 34.8792L108.605 34.3416C108.908 34.1399 109.345 34.2071 109.547 34.5432C109.749 34.8456 109.682 35.2824 109.345 35.484L108.537 36.0217C108.403 36.0889 108.268 36.1225 108.167 36.1225Z" fill="#8E5B42"/>
<path id="Vector_15" d="M110.557 34.5431C110.355 34.5431 110.12 34.4423 109.985 34.2407C109.783 33.9383 109.85 33.5015 110.187 33.2998L111.769 32.2582C112.072 32.0565 112.51 32.1238 112.712 32.4598C112.914 32.7622 112.846 33.199 112.51 33.4006L110.928 34.4423C110.827 34.5095 110.692 34.5431 110.557 34.5431ZM113.722 32.4262C113.52 32.4262 113.284 32.3254 113.149 32.1238C112.947 31.8213 113.015 31.3845 113.351 31.1829L114.934 30.1412C115.237 29.9396 115.674 30.0068 115.876 30.3428C116.078 30.6453 116.011 31.0821 115.674 31.2837L114.092 32.3254C113.991 32.3926 113.856 32.4262 113.722 32.4262ZM116.92 30.3428C116.718 30.3428 116.482 30.242 116.348 30.0404C116.146 29.738 116.213 29.3012 116.55 29.0995L118.132 28.0579C118.435 27.8563 118.872 27.9235 119.074 28.2595C119.276 28.5619 119.209 28.9987 118.872 29.2003L117.29 30.242C117.155 30.3092 117.054 30.3428 116.92 30.3428Z" fill="#8E5B42"/>
<path id="Vector_16" d="M120.084 28.2259C119.882 28.2259 119.647 28.1251 119.512 27.9235C119.31 27.621 119.377 27.1842 119.714 26.9826L120.522 26.445C120.825 26.2433 121.263 26.3105 121.465 26.6466C121.667 26.949 121.599 27.3858 121.263 27.5874L120.455 28.1251C120.354 28.1923 120.219 28.2259 120.084 28.2259Z" fill="#8E5B42"/>
</g>
</g>
</g>
<g id="Group_10">
<g id="Group_11">
<g id="Group_12">
<path id="Vector_17" d="M113.452 51.5796C113.419 51.5796 113.385 51.5796 113.385 51.5796L112.409 51.4788C112.039 51.4452 111.769 51.1092 111.837 50.7395C111.87 50.3699 112.207 50.1011 112.577 50.1683L113.553 50.2691C113.924 50.3027 114.193 50.6387 114.126 51.0083C114.058 51.3444 113.789 51.5796 113.452 51.5796Z" fill="#8E5B42"/>
<path id="Vector_18" d="M124.191 52.8901C124.158 52.8901 124.124 52.8901 124.124 52.8901L122.34 52.6885C121.97 52.6549 121.7 52.3189 121.768 51.9493C121.801 51.5796 122.138 51.3108 122.508 51.378L124.292 51.5796C124.663 51.6132 124.932 51.9492 124.865 52.3189C124.831 52.6213 124.528 52.8901 124.191 52.8901ZM120.623 52.4533C120.589 52.4533 120.556 52.4533 120.556 52.4533L118.771 52.2517C118.401 52.2181 118.132 51.882 118.199 51.5124C118.233 51.1428 118.569 50.874 118.94 50.9412L120.724 51.1428C121.094 51.1764 121.364 51.5124 121.296 51.882C121.229 52.1845 120.926 52.4533 120.623 52.4533ZM117.021 52.0165C116.987 52.0165 116.954 52.0165 116.954 52.0165L115.169 51.8148C114.799 51.7812 114.53 51.4452 114.597 51.0756C114.631 50.706 114.967 50.4371 115.338 50.5043L117.122 50.706C117.492 50.7396 117.761 51.0756 117.694 51.4452C117.66 51.7476 117.357 52.0165 117.021 52.0165Z" fill="#8E5B42"/>
<path id="Vector_19" d="M126.952 53.2261C126.918 53.2261 126.885 53.2261 126.885 53.2261L125.908 53.1253C125.538 53.0917 125.269 52.7556 125.336 52.386C125.37 52.0164 125.706 51.7476 126.077 51.8148L127.053 51.9156C127.423 51.9492 127.693 52.2852 127.625 52.6548C127.592 52.9573 127.289 53.2261 126.952 53.2261Z" fill="#8E5B42"/>
</g>
</g>
</g>
<g id="Group_13">
<g id="Group_14">
<g id="Group_15">
<path id="Vector_20" d="M105.945 66.8014C105.777 66.8014 105.575 66.7342 105.44 66.5998L104.767 65.8942C104.498 65.6253 104.531 65.1885 104.801 64.9533C105.07 64.6845 105.508 64.7181 105.743 64.9869L106.417 65.6926C106.686 65.9614 106.652 66.3982 106.383 66.6334C106.282 66.7342 106.114 66.8014 105.945 66.8014Z" fill="#8E5B42"/>
<path id="Vector_21" d="M113.149 74.5299C112.981 74.5299 112.779 74.4627 112.644 74.3283L111.433 73.0514C111.163 72.7826 111.197 72.3458 111.466 72.1106C111.736 71.8754 112.173 71.8754 112.409 72.1442L113.621 73.4211C113.89 73.6899 113.856 74.1267 113.587 74.3619C113.452 74.4963 113.284 74.5299 113.149 74.5299ZM110.726 71.9762C110.557 71.9762 110.355 71.909 110.221 71.7746L109.009 70.4977C108.739 70.2288 108.773 69.792 109.042 69.5568C109.312 69.3216 109.749 69.3216 109.985 69.5904L111.197 70.8673C111.466 71.1361 111.433 71.5729 111.163 71.8082C111.062 71.909 110.894 71.9762 110.726 71.9762ZM108.335 69.3888C108.167 69.3888 107.965 69.3216 107.83 69.1872L106.619 67.9103C106.349 67.6415 106.383 67.2046 106.652 66.9694C106.922 66.7006 107.359 66.7342 107.595 67.003L108.807 68.2799C109.076 68.5487 109.042 68.9856 108.773 69.2208C108.672 69.3216 108.504 69.3888 108.335 69.3888Z" fill="#8E5B42"/>
<path id="Vector_22" d="M115.001 76.5461C114.833 76.5461 114.631 76.4789 114.496 76.3445L113.823 75.6388C113.553 75.37 113.587 74.9332 113.856 74.6979C114.126 74.4627 114.563 74.4627 114.799 74.7315L115.472 75.4372C115.742 75.706 115.708 76.1428 115.439 76.3781C115.304 76.4789 115.169 76.5461 115.001 76.5461Z" fill="#8E5B42"/>
</g>
</g>
</g>
<g id="Group_16">
<g id="Group_17">
<g id="Group_18">
<path id="Vector_23" d="M89.8198 73.0515C89.4832 73.0515 89.1802 72.7826 89.1466 72.413L89.0792 71.4386C89.0456 71.0689 89.3485 70.7329 89.7188 70.7329C90.0891 70.6993 90.4258 71.0017 90.4258 71.3713L90.4931 72.3458C90.5268 72.7154 90.2238 73.0515 89.8535 73.0515H89.8198Z" fill="#8E5B42"/>
<path id="Vector_24" d="M90.5603 83.8378C90.2237 83.8378 89.9207 83.569 89.8871 83.1994L89.7524 81.3848C89.7187 81.0152 90.0217 80.6792 90.392 80.6792C90.7623 80.6456 91.099 80.948 91.099 81.3176L91.2336 83.1322C91.2673 83.5018 90.9643 83.8378 90.594 83.8378H90.5603ZM90.291 80.2424C89.9544 80.2424 89.6514 79.9735 89.6177 79.6039L89.4831 77.7894C89.4494 77.4198 89.7524 77.0837 90.1227 77.0837C90.493 77.0501 90.8297 77.3525 90.8297 77.7222L90.9643 79.5367C90.998 79.9063 90.695 80.2424 90.3247 80.2424C90.3247 80.2424 90.3247 80.2424 90.291 80.2424ZM90.0554 76.6469C89.7187 76.6469 89.4158 76.3781 89.3821 76.0085L89.2474 74.1939C89.2138 73.8243 89.5167 73.4883 89.8871 73.4883C90.2574 73.4547 90.594 73.7571 90.594 74.1267L90.7287 75.9412C90.7623 76.3109 90.4594 76.6469 90.089 76.6469C90.089 76.6469 90.089 76.6469 90.0554 76.6469Z" fill="#8E5B42"/>
<path id="Vector_25" d="M90.7288 86.5932C90.3921 86.5932 90.0891 86.3244 90.0555 85.9548L89.9882 84.9803C89.9545 84.6107 90.2575 84.2746 90.6278 84.2746C90.9981 84.241 91.3347 84.5435 91.3347 84.9131L91.4021 85.8876C91.4357 86.2572 91.1327 86.5932 90.7624 86.5932C90.7624 86.5932 90.7624 86.5932 90.7288 86.5932Z" fill="#8E5B42"/>
</g>
</g>
</g>
<g id="Group_19">
<g id="Group_20">
<g id="Group_21">
<path id="Vector_26" d="M74.5363 67.3391C74.4017 67.3391 74.2333 67.3055 74.1323 67.2047C73.8294 66.9695 73.7957 66.5663 74.0314 66.2639L74.6373 65.491C74.873 65.1886 75.2769 65.155 75.5799 65.3902C75.8829 65.6254 75.9166 66.0286 75.6809 66.3311L75.0749 67.1039C74.9403 67.2383 74.7383 67.3391 74.5363 67.3391Z" fill="#8E5B42"/>
<path id="Vector_27" d="M67.5004 76.311C67.3658 76.311 67.1975 76.2774 67.0965 76.1765C66.7935 75.9413 66.7598 75.5381 66.9955 75.2357L68.1737 73.7236C68.4094 73.4211 68.8133 73.3876 69.1163 73.6228C69.4193 73.858 69.453 74.2612 69.2173 74.5636L68.0391 76.0757C67.9044 76.2437 67.7024 76.311 67.5004 76.311ZM69.8569 73.3203C69.7223 73.3203 69.554 73.2867 69.453 73.1859C69.15 72.9507 69.1163 72.5475 69.352 72.2451L70.5302 70.733C70.7659 70.4305 71.1699 70.3969 71.4728 70.6322C71.7758 70.8674 71.8095 71.2706 71.5738 71.573L70.3956 73.0851C70.2609 73.2195 70.0589 73.3203 69.8569 73.3203ZM72.2134 70.3297C72.0788 70.3297 71.9105 70.2961 71.8095 70.1953C71.5065 69.9601 71.4728 69.5569 71.7085 69.2545L72.8867 67.7424C73.1224 67.4399 73.5264 67.4063 73.8293 67.6415C74.1323 67.8768 74.166 68.28 73.9303 68.5824L72.7521 70.0945C72.5838 70.2289 72.4154 70.3297 72.2134 70.3297Z" fill="#8E5B42"/>
<path id="Vector_28" d="M65.7163 78.596C65.5816 78.596 65.4133 78.5624 65.3123 78.4616C65.0093 78.2263 64.9756 77.8231 65.2113 77.5207L65.8172 76.7478C66.0529 76.4454 66.4569 76.4118 66.7599 76.647C67.0628 76.8823 67.0965 77.2855 66.8608 77.5879L66.2549 78.3608C66.1202 78.4952 65.9182 78.596 65.7163 78.596Z" fill="#8E5B42"/>
</g>
</g>
</g>
<g id="Group_22">
<g id="Group_23">
<g id="Group_24">
<path id="Vector_29" d="M67.0627 53.1925C66.7597 53.1925 66.4567 52.9573 66.3894 52.6549C66.3221 52.2853 66.5577 51.9492 66.928 51.8484L67.8706 51.6468C68.2409 51.5796 68.5776 51.8148 68.6786 52.1845C68.7459 52.5541 68.5103 52.8901 68.1399 52.9909L67.1973 53.1925C67.1637 53.1925 67.0963 53.1925 67.0627 53.1925Z" fill="#8E5B42"/>
<path id="Vector_30" d="M54.8762 55.6791C54.5732 55.6791 54.2702 55.4439 54.2029 55.1414C54.1355 54.7718 54.3712 54.4358 54.7415 54.335L56.7614 53.9318C57.1317 53.8646 57.4683 54.0998 57.5693 54.4694C57.6366 54.839 57.401 55.175 57.0307 55.2759L55.0108 55.6791C54.9772 55.6791 54.9098 55.6791 54.8762 55.6791ZM58.9496 54.8726C58.6466 54.8726 58.3436 54.6374 58.2763 54.335C58.2089 53.9654 58.4446 53.6293 58.8149 53.5285L60.8348 53.1253C61.2051 53.0581 61.5417 53.2933 61.6427 53.6629C61.71 54.0326 61.4744 54.3686 61.1041 54.4694L59.0842 54.8726C59.0169 54.839 58.9832 54.8726 58.9496 54.8726ZM62.9893 54.0326C62.6863 54.0326 62.3833 53.7974 62.316 53.4949C62.2487 53.1253 62.4843 52.7893 62.8546 52.6885L64.8745 52.2852C65.2448 52.218 65.5814 52.4533 65.6824 52.8229C65.7498 53.1925 65.5141 53.5285 65.1438 53.6293L63.1239 54.0326C63.0903 54.0326 63.0566 54.0326 62.9893 54.0326Z" fill="#8E5B42"/>
<path id="Vector_31" d="M51.8801 56.3175C51.5771 56.3175 51.2741 56.0823 51.2068 55.7799C51.1394 55.4103 51.3751 55.0742 51.7454 54.9734L52.688 54.7718C53.0583 54.7046 53.395 54.9398 53.496 55.3095C53.5633 55.6791 53.3276 56.0151 52.9573 56.1159L52.0147 56.3175C51.9811 56.3175 51.9474 56.3175 51.8801 56.3175Z" fill="#8E5B42"/>
</g>
</g>
</g>
<g id="Group_25">
<g id="Group_26">
<g id="Group_27">
<path id="Vector_32" d="M70.2946 38.3402C70.1936 38.3402 70.059 38.3066 69.958 38.273L69.1164 37.8025C68.7797 37.6345 68.6787 37.2313 68.847 36.8953C69.0154 36.5592 69.4193 36.4584 69.756 36.6264L70.5976 37.0969C70.9342 37.2649 71.0352 37.6681 70.8669 38.0041C70.7659 38.2058 70.5303 38.3402 70.2946 38.3402Z" fill="#8E5B42"/>
<path id="Vector_33" d="M67.6351 36.8617C67.5341 36.8617 67.3995 36.8281 67.2985 36.7945L65.4806 35.7864C65.1439 35.6184 65.043 35.2152 65.2113 34.8792C65.3796 34.5432 65.7836 34.4423 66.1202 34.6104L67.9381 35.6184C68.2747 35.7864 68.3757 36.1897 68.2074 36.5257C68.1064 36.7273 67.8708 36.8617 67.6351 36.8617ZM63.9657 34.8456C63.8647 34.8456 63.73 34.812 63.629 34.7784L61.8112 33.7703C61.4745 33.6023 61.3735 33.1991 61.5419 32.863C61.7102 32.527 62.1141 32.4262 62.4508 32.5942L64.2687 33.6023C64.6053 33.7703 64.7063 34.1735 64.538 34.5095C64.437 34.7448 64.2013 34.8456 63.9657 34.8456ZM60.2963 32.863C60.1953 32.863 60.0606 32.8294 59.9596 32.7958L58.1418 31.7878C57.8051 31.6197 57.7041 31.2165 57.8724 30.8805C58.0408 30.5445 58.4447 30.4437 58.7814 30.6117L60.5992 31.6197C60.9359 31.7878 61.0369 32.191 60.8686 32.527C60.7676 32.7286 60.5319 32.863 60.2963 32.863Z" fill="#8E5B42"/>
<path id="Vector_34" d="M56.6606 30.8469C56.5596 30.8469 56.4249 30.8133 56.3239 30.7797L55.4823 30.3092C55.1457 30.1412 55.0447 29.738 55.213 29.402C55.3813 29.066 55.7853 28.9651 56.122 29.1332L56.9636 29.6036C57.3002 29.7716 57.4012 30.1748 57.2329 30.5109C57.1319 30.7125 56.8962 30.8469 56.6606 30.8469Z" fill="#8E5B42"/>
</g>
</g>
</g>
<g id="Group_28">
<g id="Group_29">
<g id="Group_30">
<path id="Vector_35" d="M81.505 28.562C81.2357 28.562 80.9664 28.3939 80.8654 28.1251L80.5287 27.2179C80.3941 26.8818 80.5624 26.4786 80.9327 26.3442C81.2693 26.2098 81.6733 26.3778 81.808 26.7474L82.1446 27.6547C82.2793 27.9907 82.111 28.3939 81.7406 28.5283C81.6397 28.562 81.5723 28.562 81.505 28.562Z" fill="#8E5B42"/>
<path id="Vector_36" d="M80.3939 25.7393C80.1246 25.7393 79.8553 25.5713 79.7543 25.3025L79.0137 23.3536C78.879 23.0175 79.0473 22.6143 79.4176 22.4799C79.7543 22.3455 80.1582 22.5135 80.2929 22.8831L81.0335 24.8321C81.1682 25.1681 80.9998 25.5713 80.6295 25.7057C80.5622 25.7057 80.4949 25.7393 80.3939 25.7393ZM78.9127 21.8415C78.6433 21.8415 78.374 21.6735 78.273 21.4046L77.5324 19.4557C77.3978 19.1197 77.5661 18.7164 77.9364 18.582C78.273 18.4476 78.677 18.6156 78.8117 18.9853L79.5523 20.9342C79.6869 21.2702 79.5186 21.6735 79.1483 21.8079C79.081 21.8079 79.0137 21.8415 78.9127 21.8415ZM77.4314 17.9436C77.1621 17.9436 76.8928 17.7756 76.7918 17.5068L76.0512 15.5578C75.9165 15.2218 76.0848 14.8186 76.4552 14.6842C76.7918 14.5497 77.1958 14.7178 77.3304 15.0874L78.0711 17.0363C78.2057 17.3723 78.0374 17.7756 77.6671 17.91C77.5997 17.9436 77.4987 17.9436 77.4314 17.9436Z" fill="#8E5B42"/>
<path id="Vector_37" d="M75.9503 14.0793C75.681 14.0793 75.4117 13.9113 75.3107 13.6425L74.974 12.7352C74.8394 12.3992 75.0077 11.9959 75.378 11.8615C75.7147 11.7271 76.1186 11.8951 76.2533 12.2648L76.5899 13.172C76.7246 13.508 76.5563 13.9113 76.186 14.0457C76.1186 14.0457 76.0176 14.0793 75.9503 14.0793Z" fill="#8E5B42"/>
</g>
</g>
</g>
</g>
</g>
<g id="Group_31">
<path id="Vector_38" d="M27.9784 109.51C27.9784 98.9925 26.9685 94.3554 22.6258 86.0892C19.0237 79.2343 16.8355 71.573 15.9939 63.8444C15.6236 60.1818 15.3879 56.0823 16.3979 52.5204C17.2395 49.597 18.0137 45.7328 21.6495 47.7825C24.8813 49.597 25.7229 55.2086 26.7328 58.4344C28.0457 62.5339 29.3923 66.6334 30.9409 70.6657C32.4221 74.4964 33.6004 78.2262 35.3846 81.9561C37.2024 85.686 39.1213 89.3822 41.1075 93.0449C44.9453 100.068 50.5672 106.083 55.8189 112.064C58.3774 114.987 59.8923 118.852 61.2725 122.447C62.6864 126.11 63.7637 129.907 64.4706 133.771C65.9855 141.802 65.7162 149.699 64.7736 157.763C62.7537 175.136 59.6229 200.909 59.118 202.958C59.118 202.958 20.3366 199.396 21.1445 196.607C26.9011 176.345 25.8576 184.242 32.3884 164.013C33.7014 159.678 32.0855 154 29.0893 149.799C15.6236 131.62 3.77371 125.438 1.61919 102.622C1.34987 94.053 2.52813 85.4172 3.67272 76.8149C6.83717 53.3941 12.1561 40.9948 16.5998 17.7756C17.0711 15.3226 18.2831 11.6599 19.5623 9.50939C21.5148 6.18276 24.7803 5.04028 24.309 13.1048C23.3664 28.8644 21.1445 30.9141 20.2693 47.3121" stroke="#8E5B42" stroke-width="2.74981" stroke-miterlimit="10" stroke-linecap="round" stroke-linejoin="round"/>
<path id="Vector_39" d="M21.5823 47.2449C22.2556 42.2045 24.3428 36.0553 25.925 31.2501C27.3726 26.781 28.8201 22.3119 30.6043 17.9436L32.7925 11.8616C33.2638 10.5847 34.6441 9.87903 35.957 10.2487C37.4045 10.6519 38.2125 12.2312 37.6739 13.6425C35.0817 20.531 28.9211 41.8349 27.5745 60.8538" stroke="#8E5B42" stroke-width="2.74981" stroke-miterlimit="10" stroke-linecap="round" stroke-linejoin="round"/>
<path id="Vector_40" d="M36.933 15.7594C36.933 15.7594 40.9391 16.297 40.1311 20.3965C39.3232 24.496 31.6814 50.8403 30.1328 68.3807" stroke="#8E5B42" stroke-width="2.74981" stroke-miterlimit="10" stroke-linecap="round" stroke-linejoin="round"/>
<path id="Vector_41" d="M36.2935 35.5176C36.2935 35.5176 39.4916 36.156 39.0876 40.4571C38.6836 44.7582 34.6102 64.8525 32.9607 74.7988" stroke="#8E5B42" stroke-width="2.74981" stroke-miterlimit="10" stroke-linecap="round" stroke-linejoin="round"/>
</g>
<g id="Group_32">
<path id="Vector_42" d="M150.82 109.51C150.82 98.9925 151.83 94.3554 156.172 86.0892C159.774 79.2343 161.963 71.573 162.804 63.8444C163.175 60.1818 163.41 56.0823 162.4 52.5204C161.559 49.597 160.784 45.7328 157.149 47.7825C153.917 49.597 153.075 55.2086 152.065 58.4344C150.752 62.5339 149.406 66.6334 147.857 70.6657C146.376 74.4964 145.198 78.2262 143.414 81.9561C141.596 85.686 139.677 89.3822 137.691 93.0449C133.853 100.068 128.231 106.083 122.979 112.064C120.421 114.987 118.906 118.852 117.526 122.447C116.112 126.11 115.034 129.907 114.327 133.771C112.813 141.802 113.082 149.699 114.025 157.763C116.044 175.136 119.175 200.909 119.68 202.958C119.68 202.958 158.461 199.396 157.654 196.607C151.897 176.345 152.941 184.242 146.41 164.013C145.097 159.678 146.713 154 149.709 149.799C163.175 131.62 175.024 125.438 177.179 102.622C177.448 94.053 176.27 85.4172 175.125 76.8149C171.961 53.3941 166.642 40.9948 162.198 17.7756C161.727 15.3226 160.515 11.6599 159.236 9.50939C157.216 6.18276 153.917 5.04028 154.422 13.1048C155.364 28.8644 157.586 30.9141 158.462 47.3121" stroke="#8E5B42" stroke-width="2.74981" stroke-miterlimit="10" stroke-linecap="round" stroke-linejoin="round"/>
<path id="Vector_43" d="M157.216 47.2449C156.543 42.2045 154.455 36.0553 152.873 31.2501C151.426 26.781 149.978 22.3119 148.194 17.9436L146.006 11.8616C145.534 10.5847 144.154 9.87903 142.841 10.2487C141.394 10.6519 140.586 12.2312 141.124 13.6425C143.716 20.531 149.877 41.8349 151.224 60.8538" stroke="#8E5B42" stroke-width="2.74981" stroke-miterlimit="10" stroke-linecap="round" stroke-linejoin="round"/>
<path id="Vector_44" d="M141.865 15.7594C141.865 15.7594 137.859 16.297 138.667 20.3965C139.475 24.496 147.117 50.8403 148.665 68.3807" stroke="#8E5B42" stroke-width="2.74981" stroke-miterlimit="10" stroke-linecap="round" stroke-linejoin="round"/>
<path id="Vector_45" d="M142.504 35.5176C142.504 35.5176 139.306 36.156 139.71 40.4571C140.114 44.7582 144.188 64.8525 145.837 74.7988" stroke="#8E5B42" stroke-width="2.74981" stroke-miterlimit="10" stroke-linecap="round" stroke-linejoin="round"/>
</g>
</g>
</svg>
